<svg xmlns="http://www.w3.org/2000/svg" viewBox="0 0 140 40" width="140" height="40" role="img" aria-label="GetGems">
<title>GetGems</title>
<rect width="140" height="40" rx="10" fill="#4d7a8f"/>
<path d="M3.2 5.1 6.1 1.4h3.8l2.9 3.7L8 14.6zM3.2 5.1h9.6M6.1 1.4 8 5.1l1.9-3.7M4.9 5.1 8 14.6l3.1-9.5M6.1 1.4 3.2 5.1M9.9 1.4l2.9 3.7" transform="translate(20.8 12.0) scale(1.000)" fill="none" stroke="#f9f4f5" stroke-width="1.15" stroke-linejoin="round" stroke-linecap="round"/>
<path d="M8.67 -7.425Q8.265 -8.205 7.545 -8.6025Q6.825 -9.0 5.88 -9.0Q4.845 -9.0 4.035 -8.535Q3.225 -8.07 2.7675 -7.215Q2.31 -6.359999999999999 2.31 -5.234999999999999Q2.31 -4.109999999999999 2.7675 -3.2474999999999996Q3.225 -2.385 4.035 -1.92Q4.845 -1.4549999999999998 5.88 -1.4549999999999998Q7.2749999999999995 -1.4549999999999998 8.145 -2.235Q9.014999999999999 -3.0149999999999997 9.209999999999999 -4.35H5.295V-5.715H11.04V-4.38Q10.875 -3.165 10.1775 -2.145Q9.48 -1.125 8.3625 -0.5175Q7.245 0.09 5.88 0.09Q4.41 0.09 3.1950000000000003 -0.5924999999999999Q1.98 -1.275 1.2675 -2.49Q0.5549999999999999 -3.705 0.5549999999999999 -5.234999999999999Q0.5549999999999999 -6.765 1.2675 -7.98Q1.98 -9.195 3.2024999999999997 -9.8775Q4.425 -10.559999999999999 5.88 -10.559999999999999Q7.545 -10.559999999999999 8.8425 -9.7425Q10.139999999999999 -8.924999999999999 10.725 -7.425Z M20.835 -3.4949999999999997H14.519999999999998Q14.594999999999999 -2.505 15.254999999999999 -1.9049999999999998Q15.915 -1.305 16.875 -1.305Q18.255 -1.305 18.825 -2.46H20.669999999999998Q20.294999999999998 -1.3199999999999998 19.3125 -0.5924999999999999Q18.33 0.135 16.875 0.135Q15.689999999999998 0.135 14.752499999999998 -0.39749999999999996Q13.814999999999998 -0.9299999999999999 13.282499999999999 -1.8975Q12.749999999999998 -2.8649999999999998 12.749999999999998 -4.14Q12.749999999999998 -5.415 13.267499999999998 -6.3825Q13.784999999999998 -7.35 14.722499999999998 -7.875Q15.659999999999998 -8.4 16.875 -8.4Q18.044999999999998 -8.4 18.96 -7.890000000000001Q19.875 -7.38 20.384999999999998 -6.4575Q20.894999999999996 -5.535 20.894999999999996 -4.335Q20.894999999999996 -3.8699999999999997 20.835 -3.4949999999999997ZM19.11 -4.875Q19.095 -5.819999999999999 18.435 -6.39Q17.775 -6.96 16.799999999999997 -6.96Q15.915 -6.96 15.284999999999998 -6.3975Q14.654999999999998 -5.835 14.534999999999998 -4.875Z M25.169999999999998 -6.87V-2.295Q25.169999999999998 -1.8299999999999998 25.387499999999996 -1.6275Q25.604999999999997 -1.425 26.129999999999995 -1.425H27.179999999999996V0.0H25.83Q24.674999999999997 0.0 24.059999999999995 -0.54Q23.444999999999997 -1.08 23.444999999999997 -2.295V-6.87H22.47V-8.265H23.444999999999997V-10.32H25.169999999999998V-8.265H27.179999999999996V-6.87Z M36.9 -7.425Q36.495 -8.205 35.775 -8.6025Q35.055 -9.0 34.11 -9.0Q33.074999999999996 -9.0 32.265 -8.535Q31.455 -8.07 30.997499999999995 -7.215Q30.539999999999996 -6.359999999999999 30.539999999999996 -5.234999999999999Q30.539999999999996 -4.109999999999999 30.997499999999995 -3.2474999999999996Q31.455 -2.385 32.265 -1.92Q33.074999999999996 -1.4549999999999998 34.11 -1.4549999999999998Q35.504999999999995 -1.4549999999999998 36.375 -2.235Q37.245 -3.0149999999999997 37.44 -4.35H33.525V-5.715H39.269999999999996V-4.38Q39.105 -3.165 38.4075 -2.145Q37.709999999999994 -1.125 36.592499999999994 -0.5175Q35.474999999999994 0.09 34.11 0.09Q32.64 0.09 31.424999999999997 -0.5924999999999999Q30.209999999999997 -1.275 29.497499999999995 -2.49Q28.784999999999997 -3.705 28.784999999999997 -5.234999999999999Q28.784999999999997 -6.765 29.497499999999995 -7.98Q30.209999999999997 -9.195 31.432499999999997 -9.8775Q32.654999999999994 -10.559999999999999 34.11 -10.559999999999999Q35.775 -10.559999999999999 37.0725 -9.7425Q38.37 -8.924999999999999 38.955 -7.425Z M49.065 -3.4949999999999997H42.75Q42.824999999999996 -2.505 43.485 -1.9049999999999998Q44.144999999999996 -1.305 45.105 -1.305Q46.485 -1.305 47.055 -2.46H48.9Q48.525 -1.3199999999999998 47.5425 -0.5924999999999999Q46.559999999999995 0.135 45.105 0.135Q43.919999999999995 0.135 42.982499999999995 -0.39749999999999996Q42.044999999999995 -0.9299999999999999 41.512499999999996 -1.8975Q40.98 -2.8649999999999998 40.98 -4.14Q40.98 -5.415 41.4975 -6.3825Q42.015 -7.35 42.9525 -7.875Q43.89 -8.4 45.105 -8.4Q46.275 -8.4 47.19 -7.890000000000001Q48.105 -7.38 48.614999999999995 -6.4575Q49.125 -5.535 49.125 -4.335Q49.125 -3.8699999999999997 49.065 -3.4949999999999997ZM47.339999999999996 -4.875Q47.324999999999996 -5.819999999999999 46.66499999999999 -6.39Q46.004999999999995 -6.96 45.029999999999994 -6.96Q44.144999999999996 -6.96 43.515 -6.3975Q42.885 -5.835 42.765 -4.875Z M64.815 -4.875V0.0H63.11999999999999V-4.62Q63.11999999999999 -5.7299999999999995 62.56499999999999 -6.3225Q62.00999999999999 -6.915 61.05 -6.915Q60.089999999999996 -6.915 59.527499999999996 -6.3225Q58.964999999999996 -5.7299999999999995 58.964999999999996 -4.62V0.0H57.269999999999996V-4.62Q57.269999999999996 -5.7299999999999995 56.714999999999996 -6.3225Q56.16 -6.915 55.199999999999996 -6.915Q54.239999999999995 -6.915 53.677499999999995 -6.3225Q53.114999999999995 -5.7299999999999995 53.114999999999995 -4.62V0.0H51.404999999999994V-8.265H53.114999999999995V-7.319999999999999Q53.535 -7.83 54.17999999999999 -8.115Q54.824999999999996 -8.4 55.559999999999995 -8.4Q56.55 -8.4 57.33 -7.98Q58.10999999999999 -7.56 58.529999999999994 -6.765Q58.904999999999994 -7.515 59.69999999999999 -7.9575Q60.49499999999999 -8.4 61.41 -8.4Q62.38499999999999 -8.4 63.15749999999999 -7.995Q63.92999999999999 -7.59 64.3725 -6.795Q64.815 -6.0 64.815 -4.875Z M67.13999999999999 -2.5349999999999997H68.90999999999998Q68.95499999999998 -2.01 69.4125 -1.6574999999999998Q69.86999999999999 -1.305 70.55999999999999 -1.305Q71.27999999999999 -1.305 71.67749999999998 -1.5825Q72.07499999999999 -1.8599999999999999 72.07499999999999 -2.295Q72.07499999999999 -2.76 71.6325 -2.985Q71.18999999999998 -3.21 70.22999999999999 -3.48Q69.29999999999998 -3.735 68.71499999999999 -3.9749999999999996Q68.13 -4.215 67.70249999999999 -4.71Q67.27499999999999 -5.205 67.27499999999999 -6.015Q67.27499999999999 -6.675 67.66499999999999 -7.2225Q68.05499999999999 -7.77 68.7825 -8.085Q69.50999999999999 -8.4 70.45499999999998 -8.4Q71.865 -8.4 72.72749999999999 -7.6875Q73.58999999999999 -6.975 73.64999999999999 -5.745H71.93999999999998Q71.89499999999998 -6.3 71.48999999999998 -6.63Q71.085 -6.96 70.39499999999998 -6.96Q69.71999999999998 -6.96 69.35999999999999 -6.705Q68.99999999999999 -6.45 68.99999999999999 -6.029999999999999Q68.99999999999999 -5.7 69.23999999999998 -5.475Q69.47999999999999 -5.25 69.82499999999999 -5.1225000000000005Q70.16999999999999 -4.995 70.84499999999998 -4.8Q71.74499999999999 -4.56 72.32249999999999 -4.3125Q72.89999999999999 -4.0649999999999995 73.32 -3.585Q73.74 -3.105 73.755 -2.31Q73.755 -1.605 73.365 -1.05Q72.975 -0.495 72.26249999999999 -0.18Q71.54999999999998 0.135 70.58999999999999 0.135Q69.615 0.135 68.8425 -0.21749999999999997Q68.07 -0.57 67.61999999999999 -1.1775Q67.16999999999999 -1.785 67.13999999999999 -2.5349999999999997Z" transform="translate(44.8 25.3)" fill="#f9f4f5"/>
</svg>